<?xml version="1.0" encoding="iso-8859-1"?>
<!-- Generator: Adobe Illustrator 19.0.0, SVG Export Plug-In . SVG Version: 6.00 Build 0)  -->
<svg version="1.1" id="Capa_1" xmlns="http://www.w3.org/2000/svg" xmlns:xlink="http://www.w3.org/1999/xlink" x="0px" y="0px"
	 viewBox="0 0 512.001 512.001" style="enable-background:new 0 0 512.001 512.001;" xml:space="preserve">
<rect x="158.946" y="269.229" style="fill:#6D3E1F;" width="86.723" height="106.094"/>
<path style="fill:#935D38;" d="M249.672,158.038L249.672,158.038V377.52h38.502c0,0,108.751-52.073,127.423-68.324
	c0-11.982,13.868-76.741-0.376-151.158L249.672,158.038L249.672,158.038z"/>
<path style="fill:#80B9F9;" d="M367.66,504.5H132.312c-3.301,0-5.977-2.676-5.977-5.977v-73.7c0-25.02,15.707-47.346,39.255-55.799
	l63.522-22.803c13.494-4.844,28.253-4.844,41.747,0l63.522,22.803c23.549,8.453,39.255,30.78,39.255,55.799v73.7
	C373.637,501.823,370.961,504.5,367.66,504.5z"/>
<path style="fill:#3185DB;" d="M334.382,369.023L270.86,346.22c-10.758-3.862-22.318-4.634-33.402-2.339
	c2.819,0.584,5.609,1.356,8.345,2.339l63.522,22.803c23.549,8.453,39.255,30.78,39.255,55.799v73.7c0,3.301-2.676,5.977-5.977,5.977
	h25.057c3.301,0,5.977-2.676,5.977-5.977v-73.7C373.637,399.802,357.931,377.476,334.382,369.023z"/>
<path style="fill:#D8E6F0;" d="M184.24,429.197c21.968,10.563,49.677-0.369,65.747-24.524c16.07,24.154,43.779,35.086,65.747,24.524
	c19.643-9.444,28.725-33.207,24.117-57.887c-1.772-0.844-3.592-1.614-5.467-2.288l-63.522-22.803
	c-13.494-4.844-28.253-4.844-41.747,0l-63.522,22.803c-1.876,0.673-3.695,1.444-5.467,2.288
	C155.515,395.99,164.597,419.753,184.24,429.197z"/>
<path style="fill:#F0B27D;" d="M282.124,350.263v-52.912h-64.276v52.912l-40.469,14.528c6.595,25.161,36.587,44.166,72.607,44.166
	s66.011-19.005,72.607-44.166L282.124,350.263z"/>
<path style="fill:#F9C295;" d="M192.211,122.234c-20.645,0-37.38,16.736-37.38,37.38v103.131c0,36.393,55.56,77.463,94.841,77.463
	s94.841-41.069,94.841-77.463V155.692c0-18.478-14.979-33.456-33.456-33.456H192.211V122.234z"/>
<path style="fill:#E8A26A;" d="M311.057,122.234h-24.146c18.478,0,33.456,14.979,33.456,33.456v107.054
	c0,32.791-45.106,69.373-82.768,76.295c4.137,0.76,8.185,1.168,12.073,1.168c39.281,0,94.841-41.069,94.841-77.463V155.69
	C344.513,137.214,329.535,122.234,311.057,122.234z"/>
<path style="fill:#FFDC48;" d="M349.82,343.253l5.461-5.461c4.393-4.393,4.393-11.515,0-15.909c-4.393-4.393-11.515-4.393-15.909,0
	l-5.461,5.461c-4.393,4.393-4.393,11.515,0,15.908C338.305,347.646,345.427,347.646,349.82,343.253z"/>
<path style="fill:#FFC599;" d="M130.637,256.837h24.508v-46.514h-24.508c-12.844,0-23.257,10.412-23.257,23.257l0,0
	C107.381,246.425,117.792,256.837,130.637,256.837z"/>
<path style="fill:#935D38;" d="M262.937,122.234h30.848c0,0,37.384,14.014,56.196,49.824h68.403
	c-1.988-15.022-5.025-30.623-9.491-46.421c-24.067-85.14-88.251-112.854-115.818-92.057c-15.095-14.409-77.957-54.592-153.677,7.615
	S96.635,286.4,102.46,307.455c5.508,19.906,22.346,40.425,73.225,67.926c3.194,1.727,6.832-1.345,5.672-4.786
	C144.336,260.77,197.118,148.865,262.937,122.234z"/>
<path style="fill:#6D3E1F;" d="M408.894,125.636c-21.918-77.536-77.101-107.438-107.605-96.454
	c28.005,4.229,64.22,38.611,80.463,107.064c19.089,80.445,9.689,156.221,6.851,184.479c12.449-6.981,22.425-13.108,26.996-17.087
	C415.598,290.233,432.96,210.777,408.894,125.636z"/>
<path style="fill:#80B9F9;" d="M393.423,226.92v16.877c0,13.867-11.237,25.105-25.105,25.105H344
	c0.339-2.062,0.518-4.114,0.518-6.156v-60.929h23.8C382.186,201.814,393.423,213.062,393.423,226.92z"/>
<path d="M341.73,363.921c-0.524-0.238-1.077-0.483-1.645-0.72c-0.47-0.2-0.95-0.397-1.431-0.577
	c-0.556-0.225-1.123-0.435-1.736-0.659l-11.79-4.23c-0.001,0-0.002,0-0.002-0.001l-35.501-12.745v-7.358
	c25.929-12.265,52.827-35.837,60.317-61.228h12.102v25.693c0,1.561-0.608,3.029-1.713,4.133l-6.159,6.159
	c-2.153-0.844-4.462-1.298-6.844-1.298c-5.008,0-9.716,1.95-13.258,5.492l-5.46,5.46c-7.31,7.31-7.31,19.205,0,26.515
	c3.541,3.541,8.249,5.492,13.258,5.492c5.007,0,9.715-1.95,13.257-5.491l5.462-5.461c5.424-5.424,6.813-13.369,4.188-20.097
	l6.164-6.165c3.938-3.938,6.105-9.172,6.105-14.74v-26.889c13.753-3.826,23.88-16.454,23.88-31.41v-16.876
	c0-17.979-14.626-32.605-32.605-32.605h-16.303v-3.352c1.734,0.839,3.789,1.015,5.751,0.325c3.908-1.373,5.964-5.654,4.591-9.562
	c-15.835-45.078-59.031-63.759-65.249-66.244c9.462-2.906,17.536-4.477,22.06-5.223c4.087-0.674,6.854-4.534,6.18-8.621
	c-0.675-4.086-4.536-6.857-8.621-6.179c-9.817,1.62-34.937,6.81-57.181,20.072c-32.924,13.57-62.552,46.992-80.318,90.274
	c-0.019,0.022-0.039,0.042-0.058,0.064c-1.182,1.361-1.785,3.027-1.833,4.699c-0.26,0.677-0.527,1.349-0.781,2.031
	c-18.072,48.458-19.773,102.079-4.974,151.966c-0.882-0.495-1.763-0.994-2.644-1.496c-0.256-0.169-0.522-0.321-0.796-0.458
	c-26.579-15.239-51.978-33.751-58.452-57.154c-1.594-5.761-8.568-38.621-11.039-82.912c-3.651-65.438,5.6-105.938,14.004-128.389
	c1.452-3.879-0.516-8.201-4.396-9.653c-3.876-1.451-8.201,0.515-9.653,4.395c-30.201,80.686-8.604,201.657-3.373,220.56
	c5.805,20.982,22.393,39.375,54.129,59.321c-18.775,12.173-30.522,33.337-30.522,56.051v73.693c0,7.433,6.043,13.48,13.471,13.48
	h235.348c7.433,0,13.479-6.047,13.479-13.48v-73.693C381.137,398.364,365.708,374.65,341.73,363.921z M312.486,422.437
	c-13.355,6.42-29.841,3.167-43.351-7.691c0.269-0.049,0.534-0.105,0.801-0.156c0.311-0.059,0.62-0.119,0.929-0.181
	c0.304-0.061,0.609-0.117,0.911-0.18c0.167-0.035,0.332-0.074,0.498-0.11c0.301-0.064,0.601-0.132,0.9-0.198
	c0.232-0.052,0.465-0.1,0.695-0.154c0.223-0.051,0.445-0.104,0.667-0.157c0.297-0.071,0.592-0.146,0.888-0.219
	c0.459-0.114,0.92-0.225,1.376-0.345c0.167-0.044,0.331-0.091,0.497-0.136c0.313-0.084,0.624-0.17,0.935-0.257
	c0.489-0.136,0.977-0.276,1.462-0.419c0.211-0.062,0.422-0.123,0.632-0.187c0.2-0.061,0.398-0.123,0.597-0.184
	c0.591-0.183,1.177-0.374,1.761-0.567c0.203-0.067,0.409-0.13,0.611-0.198c0.083-0.028,0.166-0.057,0.249-0.085
	c0.874-0.299,1.74-0.606,2.597-0.927c0.016-0.006,0.032-0.013,0.048-0.019c0.104-0.039,0.205-0.081,0.308-0.12
	c0.724-0.275,1.443-0.557,2.155-0.847c0.126-0.052,0.253-0.103,0.379-0.155c0.219-0.091,0.433-0.185,0.651-0.277
	c0.485-0.205,0.968-0.412,1.447-0.624c0.227-0.101,0.453-0.202,0.679-0.304c0.189-0.086,0.379-0.172,0.567-0.259
	c0.404-0.186,0.803-0.377,1.202-0.569c0.28-0.134,0.559-0.269,0.836-0.405c0.551-0.271,1.096-0.55,1.637-0.831
	c0.237-0.123,0.477-0.244,0.712-0.369c0.221-0.118,0.441-0.237,0.661-0.357c0.24-0.13,0.476-0.263,0.714-0.396
	c0.253-0.141,0.509-0.278,0.76-0.421c0.047-0.027,0.096-0.052,0.144-0.08c0.293-0.167,0.578-0.342,0.868-0.512
	c0.243-0.143,0.486-0.285,0.726-0.43c0.214-0.129,0.428-0.256,0.64-0.386c0.2-0.123,0.396-0.25,0.594-0.375
	c0.27-0.169,0.541-0.338,0.808-0.51c0.097-0.063,0.198-0.123,0.295-0.186c0.155-0.101,0.306-0.205,0.46-0.306
	c0.248-0.164,0.493-0.33,0.738-0.496c0.35-0.237,0.701-0.474,1.046-0.716c0.151-0.106,0.3-0.213,0.45-0.319
	c0.209-0.149,0.417-0.299,0.624-0.45c0.384-0.279,0.763-0.561,1.139-0.845c0.174-0.131,0.35-0.26,0.523-0.393
	c0.118-0.091,0.235-0.183,0.353-0.274c0.493-0.384,0.977-0.775,1.457-1.169c0.128-0.105,0.26-0.206,0.387-0.311
	c0.031-0.025,0.061-0.051,0.091-0.077c0.632-0.528,1.253-1.065,1.861-1.611c0.047-0.042,0.093-0.083,0.14-0.125
	c0.149-0.134,0.291-0.272,0.438-0.407c0.407-0.373,0.811-0.747,1.206-1.127c0.122-0.118,0.245-0.235,0.366-0.354
	c0.155-0.152,0.306-0.305,0.46-0.458c0.302-0.3,0.6-0.603,0.894-0.907c0.189-0.196,0.377-0.391,0.563-0.588
	c0.119-0.127,0.24-0.252,0.358-0.379c0.255-0.274,0.502-0.553,0.75-0.831c0.194-0.216,0.388-0.431,0.578-0.649
	c0.118-0.136,0.239-0.271,0.356-0.407c0.125-0.146,0.244-0.296,0.368-0.443c0.125-0.149,0.249-0.299,0.373-0.449
	c0.144-0.175,0.293-0.347,0.435-0.523c0.149-0.186,0.294-0.374,0.441-0.561c0.173-0.219,0.343-0.44,0.512-0.662
	c0.162-0.212,0.33-0.422,0.49-0.636c0.083-0.112,0.161-0.227,0.244-0.339c0.118-0.16,0.232-0.322,0.347-0.483
	c0.145-0.202,0.293-0.403,0.435-0.606c0.111-0.159,0.222-0.318,0.331-0.478c0.152-0.222,0.297-0.447,0.446-0.67
	c0.201-0.302,0.406-0.603,0.601-0.908c0.069-0.108,0.132-0.218,0.2-0.326c0.012-0.019,0.023-0.038,0.035-0.057
	c0.155-0.248,0.307-0.498,0.459-0.748c0.201-0.332,0.399-0.664,0.593-1c0.096-0.167,0.193-0.333,0.287-0.501
	c0.099-0.176,0.196-0.353,0.293-0.53c0.222-0.405,0.436-0.814,0.647-1.223c0.096-0.187,0.198-0.371,0.292-0.559
	c0.045-0.089,0.088-0.178,0.132-0.268c0.333-0.674,0.655-1.353,0.958-2.039c0.006-0.014,0.014-0.028,0.02-0.043l4.66,1.672
	c0.423,0.154,0.845,0.307,1.259,0.477C335.62,397.026,327.615,415.165,312.486,422.437z M230.848,414.731
	c-13.509,10.869-29.998,14.128-43.359,7.706c-14.525-6.982-22.48-23.99-20.842-43.464c1.79,0.997,3.604,1.998,5.469,3.006
	c1.733,0.937,3.614,1.397,5.483,1.397c0.093,0,0.186-0.01,0.279-0.012c0.129,0.187,0.259,0.373,0.39,0.559
	c0.3,0.423,0.607,0.842,0.919,1.259c0.141,0.189,0.279,0.38,0.423,0.568c0.458,0.597,0.925,1.189,1.407,1.773
	c0.031,0.037,0.064,0.073,0.094,0.111c0.453,0.546,0.918,1.085,1.393,1.618c0.168,0.189,0.342,0.375,0.513,0.563
	c0.348,0.381,0.698,0.761,1.057,1.136c0.199,0.208,0.4,0.414,0.602,0.62c0.347,0.354,0.7,0.705,1.057,1.053
	c0.206,0.201,0.412,0.403,0.622,0.602c0.388,0.369,0.784,0.733,1.183,1.095c0.181,0.164,0.358,0.33,0.541,0.492
	c0.582,0.517,1.172,1.027,1.775,1.528c0.072,0.06,0.147,0.117,0.219,0.177c0.536,0.442,1.08,0.877,1.632,1.306
	c0.213,0.165,0.43,0.327,0.645,0.49c0.422,0.321,0.847,0.639,1.277,0.952c0.245,0.178,0.491,0.354,0.739,0.529
	c0.421,0.298,0.845,0.593,1.274,0.884c0.247,0.168,0.494,0.336,0.744,0.502c0.469,0.311,0.945,0.616,1.423,0.919
	c0.211,0.134,0.419,0.27,0.632,0.402c0.689,0.428,1.386,0.848,2.094,1.258c0.103,0.06,0.209,0.116,0.312,0.176
	c0.609,0.35,1.224,0.694,1.846,1.031c0.248,0.134,0.5,0.264,0.749,0.396c0.489,0.259,0.98,0.514,1.476,0.764
	c0.278,0.141,0.558,0.279,0.839,0.417c0.488,0.239,0.979,0.474,1.473,0.706c0.277,0.13,0.554,0.26,0.833,0.387
	c0.549,0.25,1.103,0.494,1.66,0.734c0.223,0.096,0.443,0.195,0.667,0.29c0.782,0.33,1.57,0.652,2.366,0.962
	c0.13,0.051,0.264,0.098,0.395,0.149c0.669,0.258,1.342,0.509,2.021,0.753c0.272,0.097,0.546,0.191,0.819,0.286
	c0.549,0.192,1.101,0.38,1.656,0.563c0.302,0.099,0.605,0.196,0.909,0.293c0.549,0.174,1.101,0.344,1.655,0.509
	c0.293,0.087,0.585,0.176,0.88,0.26c0.627,0.181,1.258,0.354,1.891,0.522c0.22,0.059,0.439,0.121,0.66,0.178
	c0.858,0.223,1.722,0.436,2.592,0.637c0.143,0.033,0.288,0.062,0.431,0.095c0.725,0.165,1.454,0.323,2.187,0.472
	c0.286,0.058,0.573,0.112,0.86,0.168C230.092,414.583,230.468,414.661,230.848,414.731z M184.285,354.348
	c-3.314-12.406-5.553-25.032-6.72-37.721c9.66,8.468,20.927,15.82,32.786,21.309v7.052L184.285,354.348z M312.964,369.305
	c-0.135,0.283-0.274,0.564-0.417,0.844c-0.112,0.22-0.219,0.441-0.336,0.659c-0.229,0.428-0.472,0.852-0.717,1.275
	c-0.094,0.162-0.182,0.326-0.278,0.486c-0.35,0.584-0.716,1.162-1.098,1.734c-0.044,0.065-0.092,0.128-0.136,0.194
	c-0.34,0.502-0.691,1-1.055,1.492c-0.135,0.183-0.279,0.362-0.418,0.543c-0.283,0.371-0.568,0.741-0.865,1.105
	c-0.169,0.208-0.345,0.412-0.518,0.618c-0.281,0.333-0.563,0.664-0.855,0.992c-0.19,0.213-0.385,0.424-0.579,0.635
	c-0.291,0.315-0.585,0.628-0.886,0.938c-0.203,0.209-0.409,0.417-0.617,0.624c-0.308,0.307-0.622,0.611-0.94,0.912
	c-0.211,0.2-0.423,0.401-0.639,0.599c-0.332,0.304-0.671,0.604-1.013,0.902c-0.214,0.187-0.426,0.374-0.644,0.559
	c-0.37,0.313-0.75,0.62-1.13,0.927c-0.2,0.16-0.395,0.323-0.598,0.482c-0.468,0.366-0.948,0.725-1.432,1.081
	c-0.124,0.091-0.244,0.186-0.37,0.276c-0.619,0.448-1.25,0.887-1.893,1.317c-0.12,0.081-0.245,0.157-0.366,0.237
	c-0.52,0.343-1.046,0.683-1.581,1.014c-0.222,0.137-0.45,0.27-0.675,0.405c-0.443,0.268-0.889,0.534-1.342,0.793
	c-0.26,0.149-0.524,0.293-0.786,0.439c-0.429,0.238-0.86,0.475-1.297,0.706c-0.28,0.148-0.563,0.292-0.846,0.437
	c-0.433,0.221-0.869,0.439-1.309,0.654c-0.29,0.141-0.581,0.28-0.874,0.418c-0.447,0.21-0.898,0.415-1.352,0.618
	c-0.293,0.131-0.585,0.261-0.88,0.389c-0.473,0.204-0.952,0.402-1.433,0.598c-0.282,0.115-0.563,0.232-0.847,0.344
	c-0.528,0.208-1.063,0.408-1.599,0.606c-0.244,0.09-0.486,0.184-0.732,0.272c-0.718,0.257-1.443,0.504-2.174,0.743
	c-0.068,0.022-0.134,0.046-0.202,0.069c-0.81,0.262-1.629,0.512-2.454,0.751c-0.202,0.059-0.407,0.111-0.61,0.168
	c-0.617,0.174-1.237,0.345-1.863,0.506c-0.293,0.075-0.59,0.145-0.885,0.217c-0.542,0.133-1.084,0.265-1.631,0.388
	c-0.329,0.074-0.66,0.143-0.991,0.214c-0.522,0.111-1.046,0.22-1.573,0.322c-0.346,0.067-0.693,0.131-1.041,0.194
	c-0.52,0.094-1.043,0.185-1.567,0.27c-0.353,0.057-0.706,0.114-1.061,0.167c-0.53,0.08-1.063,0.153-1.597,0.224
	c-0.352,0.046-0.704,0.094-1.057,0.136c-0.552,0.066-1.108,0.124-1.665,0.181c-0.337,0.034-0.674,0.071-1.012,0.102
	c-0.612,0.055-1.228,0.099-1.844,0.142c-0.286,0.02-0.57,0.044-0.857,0.062c-0.905,0.054-1.813,0.097-2.726,0.124l0,0
	c-1.875,0.055-3.768,0.055-5.634,0c-25.556-0.763-47.988-11.823-58.148-28.42c0.134-1.405,0.007-2.846-0.397-4.26l31.766-11.406
	c2.979-1.069,4.965-3.894,4.965-7.059v-6.532c0.11,0.034,0.219,0.062,0.33,0.095c1.908,0.579,3.802,1.094,5.677,1.546
	c0.248,0.06,0.494,0.117,0.741,0.175c0.794,0.184,1.584,0.358,2.371,0.52c0.153,0.031,0.306,0.066,0.459,0.096
	c0.917,0.183,1.827,0.348,2.732,0.499c0.22,0.037,0.438,0.069,0.657,0.104c0.732,0.116,1.459,0.222,2.182,0.316
	c0.216,0.028,0.433,0.059,0.649,0.085c0.885,0.109,1.763,0.203,2.633,0.279c0.158,0.014,0.313,0.023,0.47,0.036
	c0.732,0.059,1.457,0.106,2.177,0.142c0.234,0.012,0.467,0.023,0.699,0.032c0.856,0.034,1.706,0.057,2.543,0.057
	c0.858,0,1.73-0.024,2.606-0.06c0.238-0.01,0.476-0.021,0.715-0.033c0.747-0.038,1.499-0.088,2.258-0.151
	c0.151-0.012,0.3-0.021,0.452-0.035c0.889-0.08,1.787-0.178,2.691-0.292c0.231-0.029,0.463-0.062,0.695-0.093
	c0.736-0.099,1.477-0.209,2.222-0.33c0.222-0.036,0.442-0.069,0.665-0.107c0.92-0.157,1.846-0.329,2.778-0.519
	c0.19-0.039,0.382-0.082,0.573-0.123c0.778-0.164,1.561-0.339,2.346-0.526c0.253-0.06,0.505-0.119,0.759-0.182
	c0.953-0.234,1.909-0.481,2.871-0.748c0.085-0.024,0.171-0.05,0.255-0.074c0.889-0.25,1.782-0.516,2.678-0.793
	c0.129-0.04,0.256-0.073,0.385-0.114v6.729c0,3.165,1.987,5.989,4.966,7.059L312.964,369.305z M349.978,332.489l-5.461,5.46h-0.001
	c-0.955,0.956-2.07,1.098-2.649,1.098c-0.58,0-1.695-0.143-2.65-1.098c-1.462-1.461-1.462-3.839,0-5.301l5.459-5.46
	c0.956-0.956,2.071-1.099,2.651-1.099c0.58,0,1.695,0.143,2.65,1.098C351.439,328.65,351.439,331.028,349.978,332.489z
	 M352.019,209.314h16.3c9.707,0,17.605,7.897,17.605,17.605v16.876c0,9.707-7.897,17.605-17.605,17.605h-16.3V209.314z
	 M264.426,129.737h27.897c5.438,2.312,28.618,13.132,44.692,35.579v97.425c0,1.59-0.142,3.252-0.423,4.957
	c-3.371,20.744-28.045,45.755-57.393,58.178c-10.566,4.473-20.777,6.837-29.527,6.837c-1.072,0-2.166-0.036-3.28-0.106
	c-1.352-0.086-2.742-0.24-4.15-0.429c-6.715-0.898-14.016-2.934-21.511-6.051c0,0-0.001,0-0.002-0.001
	c-16.765-6.98-33.052-18.733-44.102-31.723c0.169-26.062,4.828-52.023,13.981-76.566c0.428-1.147,0.868-2.283,1.313-3.416
	c1.013-0.7,2.133-1.081,3.273-1.081c1.709,0,3.379,0.839,4.7,2.361c1.483,1.708,3.569,2.583,5.666,2.583
	c1.743,0,3.495-0.604,4.915-1.837c3.127-2.716,3.461-7.453,0.745-10.58c-3.304-3.804-7.677-6.312-12.363-7.181
	C215.096,165.707,238.701,140.66,264.426,129.737z M366.136,496.999H133.838v-72.173c0-15.028,6.632-29.181,17.621-38.874
	c0.61,22.249,11.485,41.329,29.533,50.004c6.669,3.205,13.835,4.747,21.116,4.747c17.001-0.001,34.608-8.414,47.876-23.687
	c13.267,15.275,30.874,23.688,47.88,23.688c7.279,0,14.452-1.542,21.122-4.748c18.071-8.685,28.947-27.795,29.53-50.075
	c11.022,9.643,17.622,23.705,17.622,38.944V496.999z"/>
<path d="M250.211,280.353c10.758,0,21.52-4.063,29.903-12.187c2.975-2.883,3.049-7.631,0.166-10.605
	c-2.882-2.975-7.63-3.049-10.605-0.167c-10.914,10.578-28.015,10.576-38.927,0c-2.975-2.883-7.723-2.808-10.605,0.166
	c-2.883,2.975-2.809,7.723,0.166,10.605C228.693,276.292,239.451,280.353,250.211,280.353z"/>
<path d="M288.867,216.447c3.127,2.714,7.863,2.383,10.581-0.745c1.321-1.522,2.991-2.361,4.7-2.361s3.379,0.839,4.7,2.361
	c1.483,1.708,3.569,2.583,5.666,2.583c1.743,0,3.495-0.604,4.915-1.837c3.127-2.716,3.461-7.453,0.745-10.58
	c-4.153-4.783-9.995-7.526-16.027-7.526s-11.873,2.743-16.027,7.526C285.406,208.993,285.74,213.731,288.867,216.447z"/>
<path d="M416.111,123.596c-7.56-26.745-19.252-49.487-34.749-67.593c-13.703-16.01-29.654-27.4-46.13-32.942
	c-15.37-5.17-30.1-4.673-41.421,1.22c-11.456-9.204-30.767-19.588-53.725-23.041c-35.311-5.31-71.781,6.5-105.449,34.16
	c-7.965,6.543-15.128,14.606-21.286,23.963c-2.277,3.46-1.318,8.111,2.142,10.388c3.459,2.276,8.11,1.318,10.388-2.141
	c5.329-8.096,11.479-15.034,18.278-20.62c30.728-25.244,62.249-35.648,93.696-30.918c30.016,4.514,48.08,21.061,50.041,22.932
	c2.658,2.536,6.762,2.773,9.695,0.562c7.772-5.865,19.75-6.699,32.857-2.289c37.213,12.518,61.193,54.905,71.228,90.399
	c19.336,68.405,11.263,133.848,7.815,161.793c-0.536,4.343-0.956,7.746-1.189,10.384c-3.705,2.732-10.756,7.279-24.152,14.769
	c-3.615,2.021-4.907,6.591-2.887,10.206c1.374,2.458,3.925,3.842,6.554,3.842c1.238,0,2.495-0.308,3.653-0.955
	c14.837-8.294,24.339-14.319,29.051-18.421c1.637-1.424,2.576-3.488,2.576-5.657c0-1.944,0.594-6.757,1.281-12.331
	C427.938,262.462,436.27,194.915,416.111,123.596z"/>
<g>
</g>
<g>
</g>
<g>
</g>
<g>
</g>
<g>
</g>
<g>
</g>
<g>
</g>
<g>
</g>
<g>
</g>
<g>
</g>
<g>
</g>
<g>
</g>
<g>
</g>
<g>
</g>
<g>
</g>
</svg>
